<?xml version="1.0" encoding="UTF-8"?>
<svg id="Capa_1" data-name="Capa 1" xmlns="http://www.w3.org/2000/svg" viewBox="0 0 500 500">
  <defs>
    <style>
      .cls-1 {
        fill: #c8dfb0;
      }
    </style>
  </defs>
  <path class="cls-1" d="M388.79,57.42c.2,2.76-.34,5.48-.66,8.2-.19,1.64-.28,3.28-.48,4.92-.81,6.62-1.77,13.21-2.87,19.75-1.68,9.96-3.76,19.83-6.26,29.6-3.18,12.33-7,24.48-11.45,36.41-5.05,13.58-10.94,26.84-17.64,39.69-4.49,8.62-9.37,17.02-14.64,25.19-4.29,6.66-8.85,13.12-13.69,19.39-2.17,2.93-4.51,5.74-7.01,8.4-.92,.94-1.17,.92-1.82-.23-2.99-5.03-6.36-9.82-10.1-14.33-4.62-5.67-9.65-10.99-15.05-15.93-2.35-2.21-5.52-3.07-8.61-3.77-4.04-.92-8.2-1.2-12.32-.83-4.36,.41-8.77,.78-12.96,2.22-.47,.12-.94,.18-1.42,.2,0-6.14,0-12.28-.09-18.43,0-1.17,.51-1.42,1.5-1.35,3.86,.27,7.73,.4,11.57,.78,7.09,.6,14.11,1.83,20.97,3.67,4.8,1.35,9.47,3.02,13.66,5.8,.2,.09,.41,.16,.63,.21,1.3-3.66,2.54-7.31,3.91-10.96,12-32.1,27.03-62.72,46.01-91.32,10.69-16.38,23.02-31.61,36.82-45.47,.58-.69,1.24-1.31,1.98-1.82Z"/>
  <path class="cls-1" d="M248.01,215.84c-.61-.45-1.33-.72-2.08-.78-4.92-1.02-9.95-1.43-14.98-1.24-4.84,.27-9.57,1.08-13.82,3.65-.77,.46-1.48,1.02-2.11,1.65-2.86,2.9-5.83,5.7-8.61,8.69-3.68,4-7.14,8.21-10.33,12.6-1.94,2.59-3.72,5.3-5.34,8.1-.83,1.46-1.01,1.5-2.19,.14-2.11-2.44-4.2-4.92-6.19-7.46-5.13-6.5-9.85-13.31-14.32-20.23-3.76-5.85-7.32-11.82-10.69-17.92-2.9-5.26-5.74-10.54-8.33-15.96-4.96-10.38-9.47-20.96-13.51-31.74-4.75-12.85-8.76-25.96-12.02-39.26-1.92-7.8-3.58-15.65-4.96-23.57-.78-4.7-1.57-9.34-2.25-14.02-.55-3.91-1.09-7.88-1.42-11.86-.18-2.06-.38-4.1-.4-6.17,2.61,2.36,5.06,4.88,7.35,7.56,13.39,14.81,25.33,30.86,35.66,47.94,16.87,27.57,30.75,56.86,41.4,87.38,.27,.78,.5,1.57,.78,2.35,.49,1.34,.54,1.39,1.7,.67,4.24-2.48,8.82-4.3,13.6-5.42,6.49-1.62,13.1-2.75,19.76-3.38,4.6-.49,9.21-.74,13.83-.99,1.73-.09,1.75-.09,1.57,1.64l-1.88,17.07c-.05,.19-.11,.38-.2,.56Z"/>
  <path class="cls-1" d="M391.71,231.58c-1.13,2.06-1.67,4.35-2.47,6.53-4.93,13.56-11.87,26.3-20.57,37.81-4.04,5.17-8.55,9.95-13.48,14.28-4.9,4.46-10.4,8.2-16.35,11.13-.48,.26-.99,.49-1.51,.67-.38,.11-.72,.43-1.28,.26,.77-1.43,1.64-2.8,2.61-4.09,2.58-3.98,5.36-7.83,7.83-11.93,.31-.37,.48-.84,.5-1.32,2.58-3.49,5.22-6.94,7.74-10.48,9.92-13.9,18.54-28.54,24.83-44.48,.63-1.57,1.22-3.22,1.79-4.85,.16-.6,.53-1.12,1.06-1.46,2.65-1.6,5.29-3.23,7.95-4.83,.25-.09,.52-.15,.78-.17,.6,4.29,.79,8.62,.57,12.94Z"/>
  <path class="cls-1" d="M154.73,283.05c1.12,.78,1.03,2.15,1.7,3.13,1.46,2.22,2.83,4.51,4.34,6.7,.58,.83,.78,1.89,1.7,2.52,2.12,1.39,3.55,3.62,3.91,6.12-.5,.78-1.09,.38-1.63,.09-2-1.07-4.04-2.1-5.99-3.26-7.64-4.58-14.09-10.58-20.03-17.15-6.6-7.5-12.25-15.8-16.8-24.69-4.19-8.06-7.72-16.43-10.58-25.05-.84-2.47-1.57-4.99-2.27-7.5-.07-.26-.21-.5-.42-.67-.1-1.64,.1-3.29,.58-4.87,2.96,1.82,5.82,3.59,8.71,5.33,.5,.38,.85,.94,.96,1.57,7.4,20.76,18.87,39.09,33.33,55.59,.72,.81,1.17,2,2.49,2.15Z"/>
  <path class="cls-1" d="M108.6,224.55c.05,.94,.28,1.89-.19,2.79-.18-.93-.12-1.9,.19-2.79Z"/>
  <path class="cls-1" d="M108.41,233.33c.47,.92,.23,1.86,.17,2.81-.29-.91-.35-1.87-.17-2.81Z"/>
  <path class="cls-1" d="M127.18,215.23c10.91,26.48,22.09,52.75,38.92,76.4-1.16,.17-2.33,.21-3.5,.11-.84,0-1.1-.78-1.45-1.34-2.21-3.58-4.45-7.14-6.59-10.77-8.36-14.24-15.94-28.87-21.82-44.34-2.37-6.18-4.27-12.53-5.7-18.99-.12-.36-.07-.76,.14-1.07Z"/>
  <path class="cls-1" d="M166.39,301.56c-1.13-2.15-2.44-4.2-3.91-6.12,.88-.93,1.73-1.03,2.51-.23,.31,.36,.59,.76,.83,1.17,2.24,3.55,3.79,7.5,4.56,11.63,.14,.44,.09,.92-.16,1.32-1.38-2.61-2.28-5.35-3.83-7.77Z"/>
  <path class="cls-1" d="M373.18,215.5c-.45,2.89-1.11,5.74-1.99,8.53-3.23,11.24-7.83,21.92-13,32.4-5.56,11.27-11.71,22.25-18.41,32.88-1.83,2.92-1.9,2.94-5.48,2.3-.13-.4,.16-.64,.36-.9,8.49-11.49,15.14-24.04,21.39-36.8,5.9-12.09,11.24-24.43,16.21-36.94,.13-.59,.46-1.11,.93-1.49Z"/>
  <path class="cls-1" d="M338.03,294.9c-3.59,4.7-5.9,9.71-8.27,14.73,.5-5.06,2.28-9.91,5.17-14.09,.73-1.05,1.71-.89,3.09-.63Z"/>
  <path class="cls-1" d="M204.72,374.32c-1.61-7.13-4.07-14.03-7.34-20.57-.94-1.92-2.72-3.3-4.82-3.71-7.33-1.85-12.38,1.02-14.27,8.3-1.41,5.43-1.24,10.96-.34,16.44,1.24,7.6,4.63,14.09,10.62,19.09,4.58,3.69,9.93,6.29,15.66,7.61,1.49,.49,3.03,.77,4.6,.86,.22-.68,.25-1.41,.08-2.11-.79-8.72-2.19-17.38-4.18-25.91Z"/>
  <path class="cls-1" d="M247.94,312.25c-.04-1.57-.04-1.61-1.57-1.63h-7.66c-1.35,0-1.39-.05-1.24-1.44,.29-2.74,.62-5.48,.93-8.22,.87-7.74,1.74-15.48,2.61-23.23,1.04-9.32,2.12-18.63,3.24-27.95,.78-6.65,1.57-13.31,2.3-19.93,.49-4.7,1.23-9.3,1.48-13.99-.25-1.29-1.4-1.18-2.27-1.35-6.47-1.29-13-1.82-19.57-.74-4.11,.68-8.15,1.76-11.3,4.75-9.08,8.61-17.42,17.9-24,28.65-1.09,1.78-1.45,1.78-2.83,.13-2.74-3.28-5.48-6.58-8.03-10.01-14.39-19.44-26.53-40.45-36.17-62.63-10.37-23.68-18.16-48.41-23.23-73.76-2.31-11.43-4.07-22.95-5.3-34.57-.21-1.94,.23-4.03-.89-5.85-1.33-1.66-2.86-3.16-4.55-4.45-1.33,16.27-1.77,32.6-1.32,48.92,.5,16.2,1.86,32.29,5.39,48.16-3.5-5.15-5.61-10.87-7.2-16.82-.09,.28-.12,.57-.09,.85,.28,2.4,.55,4.8,.88,7.19,2.22,15.92,5.24,31.72,9.06,47.33,5.32,21.55,12.08,42.61,21.59,62.71,4.69,10.01,10.21,19.6,16.52,28.68,1.25,4.7,4.53,8.26,7.05,12.23,.2,.22,.49,.32,.78,.27,1.52-.78,2.28,.19,2.98,1.32,1.98,3.25,3.41,6.81,4.22,10.53-.84-1.77-1.33-4.3-3.37-5.97-3.05-.45-5.4-2.35-7.92-3.91-8.31-5.02-15.13-11.74-21.4-19.07-6.93-8.07-12.33-17.12-16.97-26.66-4.18-8.72-7.63-17.77-10.31-27.06-.16-.58-.07-1.5-1.11-1.44l-.07,1.27c-.27,.92,0,1.87-.19,2.79-.14,1.99-.14,3.99,0,5.98,.21,.92-.06,1.89,.17,2.81,.08,4.76,.51,9.5,1.28,14.2,2.09,14.5,6.2,28.63,12.21,41.99,7,15.58,16.23,30.05,27.4,42.97,.48,.56,.92,1.13,1.64,2h-5.26c-2.65,.04-2.69-.5-2.24,2.57,.9,6.15,1.86,12.28,2.87,18.4,.94,5.64,1.94,11.28,3.25,16.86,.48,2.16,1.44,4.18,2.83,5.9,3.06,3.84,6.32,7.52,9.76,11.02,12.44,12.49,26.49,23.26,41.78,32.03,13.2,7.65,27.1,14.06,41.49,19.12,.72,.26,1.44,.78,2.4,.43v-130.13c-.05-.41-.05-.85-.05-1.24Zm-37.39,97.48c0,1.28-.14,1.37-1.32,.97-12.27-4.17-23.68-9.86-33.07-19.04-7.96-7.77-13.42-17.74-15.66-28.64-1.43-6.97-1.75-14.12-.95-21.19,.73-7.48,2.27-14.86,4.6-22,.4-.89,.13-1.93-.66-2.51-1.78-1.74-3.03-3.95-3.62-6.37,5.23,2.22,10.15,5.12,14.63,8.61,10.78,8.31,18.62,18.95,24.35,31.2,4.98,10.94,8.36,22.54,10.01,34.45,.76,5.04,1.25,10.12,1.46,15.22,.15,3.1,.27,6.2,.21,9.29Z"/>
  <path class="cls-1" d="M311.85,349.52c-2,.02-3.99,.38-5.88,1.05-1.06,.33-1.94,1.06-2.46,2.04-2.05,3.67-3.75,7.52-5.08,11.51-4.06,12.1-6.01,24.6-7.25,37.24-.09,.92,.27,1.1,1.06,.95,2.71-.49,5.38-1.2,7.99-2.1,7.4-2.68,13.62-6.9,17.8-13.76,3.62-5.96,4.81-12.53,4.87-19.4,0-.78,.05-1.52,0-2.27-.25-3.45-.65-6.87-2.35-9.99-1.6-3.32-5.01-5.38-8.69-5.27Z"/>
  <path class="cls-1" d="M364.78,247.53c8.27-20.36,14.45-41.39,19.5-62.77,3.25-13.76,5.98-27.63,8.18-41.59,.52-2.36,.81-4.77,.87-7.19-3.48,11.66-5.26,15.88-7.43,17.44,1.03-4.13,1.83-8.18,2.52-12.25,1.79-11.17,2.84-22.44,3.13-33.75,.54-16.71,.17-33.44-1.12-50.11,0-.38,.09-.86-.52-.99-.5,.22-.9,.61-1.14,1.1-.31,.69-.49,1.44-.53,2.19-.59,5.35-1.04,10.71-1.77,16.04-2.17,16.15-5.35,32.15-9.53,47.91-5.57,20.82-13.01,41.1-22.25,60.57-8.02,17.07-17.59,33.38-28.58,48.7-3.56,4.93-7.28,9.73-11.2,14.37-1.46,1.73-1.82,1.69-2.98-.17-.78-1.29-1.57-2.58-2.47-3.84-5.77-8.18-12.27-15.83-19.43-22.83-3.28-3.29-7.48-5.51-12.04-6.37-6.68-1.41-13.31-.84-19.96,.29-2.15,.37-4.38,.63-6.26,1.95,0,.9-.11,1.79-.11,2.69v74.38c0,1.49,.05,1.53,1.49,1.57h9.11c1.38,0,1.38,.05,1.35,1.39,0,.34,0,.69-.06,1.03-.65,7.05-1.32,14.14-1.94,21.22s-1.17,14.01-1.8,21.02c-.78,8.52-1.57,17.02-2.35,25.54-.63,7.05-1.18,14.15-1.82,21.23-.78,8.44-1.57,16.89-2.35,25.33-.81,9-1.62,18-2.43,26.99-.16,1.77-.26,3.55-.38,5.32,.17,.05,.35,.06,.52,.05,.53-.16,1.06-.33,1.57-.51,20.18-6.98,39.36-16.58,57.03-28.57,13.43-9.02,25.63-19.74,36.3-31.9,2.72-2.95,4.5-6.65,5.12-10.62,.1-.78,.31-1.49,.45-2.23,1.57-7.83,2.82-15.74,4.05-23.64,.46-2.98,.86-5.98,1.3-9.02-1.26-.22-2.55-.28-3.83-.19-1.21-.04-2.43,0-3.59,0-.04-.29-.08-.38-.05-.42,1.57-1.91,3.19-3.8,4.74-5.74,14.98-18.55,26-39.15,32.31-62.2,2.27-8.32,3.84-16.81,4.7-25.39,.49-3.97,.66-7.98,.52-11.98-1.31,.3-1.21,1.57-1.52,2.41-3.39,9.85-7.74,19.35-12.99,28.35-7.41,12.46-16.52,23.42-28.18,32.1-3.67,2.87-7.7,5.25-11.98,7.1,3.13-4.88,6.34-9.39,9.25-14.09,.47-.74,1.39-1.49,.68-2.58-1.06,.78-1.57,2.04-2.72,2.73,.08-.34,.23-.66,.43-.94,8.18-12.28,14.64-25.46,20.18-39.11Zm-25.91,63.92c.47-.35,1.04-.53,1.63-.49-.63,2.26-1.82,4.33-3.46,6.02-1.27,1.17-1.23,2.14-.78,3.6,2.79,8.46,4.39,17.27,4.77,26.16,.63,20.58-6.64,37.63-23.22,50.29-8.2,6.26-17.44,10.53-27.19,13.78-.28,.05-.56,.09-.84,.1-.18-4.12-.15-8.25,.1-12.37,.57-9.57,2.07-19.06,4.49-28.34,3.48-13.05,8.73-25.27,16.93-36.1,7.23-9.66,16.69-17.43,27.57-22.66h0Z"/>
</svg>