<svg id="Capa_1" data-name="Capa 1" xmlns="http://www.w3.org/2000/svg" viewBox="0 0 500 500"><defs><style>.cls-1{fill:#62b988;}</style></defs><path class="cls-1" d="M427.27,4c.25,3.53-.43,7-.84,10.48-.24,2.09-.36,4.19-.61,6.29Q424.26,33.46,422.15,46q-3.21,19.08-8,37.81a466.64,466.64,0,0,1-14.62,46.5A444.29,444.29,0,0,1,377,181q-8.6,16.52-18.7,32.17-8.22,12.76-17.49,24.77a119.14,119.14,0,0,1-8.95,10.73c-1.17,1.2-1.49,1.17-2.32-.3a143.25,143.25,0,0,0-12.9-18.3,192.59,192.59,0,0,0-19.22-20.35c-3-2.82-7.05-3.92-11-4.82a50.24,50.24,0,0,0-15.74-1.06c-5.57.52-11.2,1-16.55,2.84a9.08,9.08,0,0,1-1.82.26c0-7.84,0-15.69-.11-23.54,0-1.5.65-1.81,1.92-1.72,4.93.34,9.87.51,14.78,1a153.19,153.19,0,0,1,26.79,4.69c6.13,1.72,12.09,3.86,17.45,7.41a3.9,3.9,0,0,0,.8.27c1.66-4.67,3.25-9.34,5-14,15.33-41,34.53-80.11,58.77-116.64A365.32,365.32,0,0,1,424.74,6.33,12.85,12.85,0,0,1,427.27,4Z"/><path class="cls-1" d="M247.46,206.35a5.09,5.09,0,0,0-2.66-1,79.34,79.34,0,0,0-19.13-1.58c-6.18.34-12.23,1.38-17.65,4.66a14.45,14.45,0,0,0-2.7,2.11c-3.65,3.71-7.45,7.28-11,11.1a180.12,180.12,0,0,0-13.2,16.1,105.59,105.59,0,0,0-6.82,10.35c-1.06,1.86-1.29,1.92-2.8.18-2.7-3.12-5.36-6.29-7.91-9.53-6.55-8.3-12.58-17-18.29-25.84q-7.2-11.2-13.65-22.89c-3.7-6.72-7.33-13.46-10.64-20.38q-9.51-19.89-17.25-40.54A460,460,0,0,1,88.41,78.94Q84.73,64,82.07,48.84c-1-6-2-11.93-2.88-17.91-.7-5-1.39-10.07-1.82-15.15-.23-2.63-.48-5.24-.51-7.88a105.61,105.61,0,0,1,9.39,9.65A399.7,399.7,0,0,1,131.8,78.78a580.1,580.1,0,0,1,52.88,111.61c.35,1,.64,2,1,3,.63,1.71.69,1.77,2.17.85a62.55,62.55,0,0,1,17.37-6.92A171.17,171.17,0,0,1,230.46,183c5.87-.62,11.77-.94,17.66-1.27,2.21-.12,2.24-.12,2,2.1l-2.4,21.8A3.43,3.43,0,0,1,247.46,206.35Z"/><path class="cls-1" d="M431,226.45c-1.44,2.63-2.13,5.55-3.16,8.34a184.65,184.65,0,0,1-26.28,48.29,135.1,135.1,0,0,1-17.22,18.24,90.2,90.2,0,0,1-20.88,14.21,13.23,13.23,0,0,1-1.93.86c-.48.14-.92.55-1.63.33a42.14,42.14,0,0,1,3.33-5.23c3.3-5.09,6.84-10,10-15.24a2.81,2.81,0,0,0,.64-1.69c3.3-4.46,6.67-8.87,9.89-13.38,12.67-17.76,23.68-36.46,31.72-56.81.81-2,1.56-4.11,2.29-6.19a3.2,3.2,0,0,1,1.35-1.87c3.39-2.05,6.76-4.12,10.15-6.17a4,4,0,0,1,1-.22A88.14,88.14,0,0,1,431,226.45Z"/><path class="cls-1" d="M128.31,292.2c1.43,1,1.32,2.75,2.17,4,1.87,2.84,3.61,5.76,5.54,8.56.74,1.06,1,2.42,2.17,3.22a11.3,11.3,0,0,1,5,7.82c-.64,1-1.39.49-2.08.12-2.56-1.37-5.16-2.68-7.65-4.17-9.76-5.85-18-13.52-25.58-21.91a153.86,153.86,0,0,1-21.46-31.54,218,218,0,0,1-13.51-32c-1.07-3.16-2-6.38-2.9-9.58a1.65,1.65,0,0,0-.54-.86,17.66,17.66,0,0,1,.74-6.22c3.78,2.32,7.44,4.58,11.12,6.81a3.25,3.25,0,0,1,1.23,2c9.45,26.52,24.1,49.93,42.57,71C126.05,290.49,126.63,292,128.31,292.2Z"/><path class="cls-1" d="M69.39,217.48c.06,1.2.36,2.42-.24,3.57A7,7,0,0,1,69.39,217.48Z"/><path class="cls-1" d="M69.15,228.69c.6,1.17.3,2.38.22,3.59A7.28,7.28,0,0,1,69.15,228.69Z"/><path class="cls-1" d="M93.12,205.57c13.94,33.82,28.21,67.38,49.71,97.59a19.37,19.37,0,0,1-4.47.14c-1.07,0-1.4-1-1.85-1.71-2.82-4.57-5.69-9.12-8.42-13.76-10.68-18.19-20.36-36.88-27.87-56.63a170.93,170.93,0,0,1-7.28-24.26A1.55,1.55,0,0,1,93.12,205.57Z"/><path class="cls-1" d="M143.2,315.84a53.81,53.81,0,0,0-5-7.82c1.13-1.19,2.21-1.32,3.21-.3a9.89,9.89,0,0,1,1.06,1.5,42.28,42.28,0,0,1,5.82,14.86,2,2,0,0,1-.2,1.68C146.33,322.43,145.18,318.93,143.2,315.84Z"/><path class="cls-1" d="M407.34,205.92a74.8,74.8,0,0,1-2.54,10.9c-4.13,14.36-10,28-16.61,41.39a460.74,460.74,0,0,1-23.52,42c-2.34,3.73-2.43,3.75-7,2.94-.17-.51.21-.82.46-1.15,10.84-14.67,19.34-30.7,27.32-47,7.54-15.44,14.36-31.21,20.7-47.18A3.4,3.4,0,0,1,407.34,205.92Z"/><path class="cls-1" d="M362.44,307.33c-4.59,6-7.54,12.4-10.56,18.81a38.29,38.29,0,0,1,6.61-18C359.42,306.8,360.68,307,362.44,307.33Z"/><path class="cls-1" d="M192.16,408.78a116.08,116.08,0,0,0-9.37-26.27,8.75,8.75,0,0,0-6.16-4.74c-9.36-2.36-15.81,1.3-18.23,10.6-1.8,6.94-1.58,14-.43,21,1.59,9.71,5.92,18,13.56,24.38a49.61,49.61,0,0,0,20,9.72,23.06,23.06,0,0,0,5.87,1.1,4.87,4.87,0,0,0,.1-2.69A240.21,240.21,0,0,0,192.16,408.78Z"/><path class="cls-1" d="M247.36,329.49c-.05-2-.05-2.06-2-2.08-3.26,0-6.52,0-9.78,0-1.73,0-1.77-.07-1.59-1.84.37-3.5.79-7,1.19-10.5q1.66-14.83,3.34-29.67,2-17.85,4.14-35.7c1-8.49,2-17,2.94-25.46.63-6,1.57-11.88,1.89-17.87-.32-1.65-1.79-1.51-2.9-1.73-8.26-1.65-16.6-2.33-25-.94-5.25.87-10.41,2.25-14.43,6.07-11.6,11-22.25,22.86-30.65,36.59-1.39,2.27-1.85,2.27-3.61.16-3.5-4.19-7-8.41-10.26-12.79a407.61,407.61,0,0,1-46.2-80A460,460,0,0,1,84.77,59.52Q80.35,37.62,78,15.37c-.27-2.48.29-5.15-1.14-7.47a33.5,33.5,0,0,0-5.81-5.69A572.48,572.48,0,0,0,69.36,64.7c.64,20.69,2.38,41.24,6.88,61.52-4.47-6.58-7.16-13.88-9.2-21.48a2.62,2.62,0,0,0-.11,1.09c.36,3.06.7,6.13,1.13,9.18a605.68,605.68,0,0,0,11.57,60.46c6.79,27.53,15.43,54.43,27.58,80.1a249.92,249.92,0,0,0,21.1,36.63c1.6,6,5.79,10.55,9,15.62a1.08,1.08,0,0,0,1,.34c1.94-1,2.91.24,3.8,1.68a43.59,43.59,0,0,1,5.39,13.45c-1.07-2.26-1.7-5.49-4.31-7.62-3.9-.58-6.9-3-10.11-5-10.61-6.41-19.32-15-27.33-24.36C96.9,276,90,264.44,84.07,252.26A224,224,0,0,1,70.9,217.7c-.21-.74-.09-1.91-1.42-1.84l-.09,1.62c-.34,1.17,0,2.39-.24,3.57a54.11,54.11,0,0,0,0,7.64c.27,1.18-.08,2.41.22,3.59A126.84,126.84,0,0,0,71,250.42a200.61,200.61,0,0,0,15.6,53.63,224.76,224.76,0,0,0,35,54.88c.61.71,1.18,1.44,2.09,2.56-2.56,0-4.64,0-6.72,0-3.38.05-3.43-.64-2.86,3.28q1.73,11.78,3.67,23.5c1.2,7.21,2.48,14.41,4.15,21.53a18.39,18.39,0,0,0,3.61,7.54A184.2,184.2,0,0,0,138,431.42a252.34,252.34,0,0,0,53.37,40.91,312.13,312.13,0,0,0,53,24.42c.92.33,1.84,1,3.06.55V331.08C247.36,330.55,247.37,330,247.36,329.49ZM199.6,454c0,1.64-.18,1.75-1.68,1.24-15.67-5.33-30.24-12.59-42.24-24.32a71.1,71.1,0,0,1-20-36.58,86.55,86.55,0,0,1-1.21-27.06,131.42,131.42,0,0,1,5.88-28.1,2.62,2.62,0,0,0-.84-3.2,17.05,17.05,0,0,1-4.62-8.13,83.75,83.75,0,0,1,18.69,11c13.77,10.62,23.78,24.2,31.1,39.85a159,159,0,0,1,12.79,44,180.59,180.59,0,0,1,1.86,19.44C199.52,446.1,199.67,450.06,199.6,454Z"/><path class="cls-1" d="M329,377.1a23.16,23.16,0,0,0-7.51,1.34,5.32,5.32,0,0,0-3.14,2.6,86.42,86.42,0,0,0-6.49,14.7c-5.19,15.45-7.68,31.42-9.26,47.57-.11,1.17.35,1.4,1.35,1.21a69,69,0,0,0,10.2-2.68c9.45-3.42,17.4-8.81,22.73-17.57,4.63-7.61,6.14-16,6.22-24.78,0-1,.06-1.94,0-2.9-.32-4.41-.83-8.77-3-12.76A11.93,11.93,0,0,0,329,377.1Z"/><path class="cls-1" d="M396.61,246.83c10.56-26,18.46-52.87,24.91-80.17q6.23-26.37,10.45-53.12a47.77,47.77,0,0,0,1.11-9.19c-4.44,14.89-6.72,20.28-9.49,22.27,1.32-5.27,2.34-10.45,3.22-15.65a326.22,326.22,0,0,0,4-43.11,583.34,583.34,0,0,0-1.43-64c0-.48.11-1.1-.66-1.27A2.92,2.92,0,0,0,427.27,4a8.1,8.1,0,0,0-.68,2.8c-.75,6.83-1.33,13.68-2.26,20.49a496.41,496.41,0,0,1-12.17,61.19,454.18,454.18,0,0,1-28.42,77.37,394.91,394.91,0,0,1-36.51,62.21c-4.55,6.3-9.3,12.43-14.31,18.36-1.87,2.21-2.32,2.16-3.8-.22-1-1.65-2-3.29-3.15-4.9a210.32,210.32,0,0,0-24.82-29.16A29.46,29.46,0,0,0,285.77,204c-8.53-1.8-17-1.07-25.49.37-2.74.47-5.59.8-8,2.49,0,1.15-.14,2.29-.14,3.43v93.41c0,.53,0,1.06,0,1.59,0,1.9.06,1.95,1.9,2,3.88,0,7.76,0,11.64,0,1.76,0,1.76.06,1.73,1.77,0,.44,0,.88-.08,1.32-.83,9-1.68,18.06-2.48,27.1s-1.5,17.9-2.3,26.85c-1,10.88-2,21.74-3,32.62-.8,9-1.51,18.08-2.32,27.12-1,10.78-2,21.57-3,32.35q-1.56,17.24-3.1,34.48c-.2,2.26-.33,4.53-.49,6.79a2,2,0,0,0,.67.06c.68-.2,1.35-.42,2-.65a310.79,310.79,0,0,0,72.85-36.49,239,239,0,0,0,46.37-40.75,25.87,25.87,0,0,0,6.54-13.56c.13-1,.39-1.9.58-2.85,2-10,3.6-20.1,5.17-30.2.59-3.81,1.1-7.64,1.66-11.52a20,20,0,0,0-4.89-.24c-1.55-.05-3.1,0-4.59,0-.05-.37-.1-.49-.07-.54,2-2.44,4.07-4.86,6.06-7.33,19.13-23.69,33.21-50,41.27-79.45a197.48,197.48,0,0,0,6-32.43,96.55,96.55,0,0,0,.66-15.3c-1.67.38-1.54,2-1.94,3.08a203.52,203.52,0,0,1-16.59,36.21c-9.46,15.91-21.1,29.91-36,41a70.07,70.07,0,0,1-15.3,9.07c4-6.23,8.1-12,11.81-18,.6-.95,1.78-1.9.87-3.3-1.35,1-2,2.61-3.48,3.49a3.31,3.31,0,0,1,.55-1.2C381.29,281.1,389.54,264.27,396.61,246.83Zm-33.1,81.65a3.17,3.17,0,0,1,2.08-.63,18,18,0,0,1-4.42,7.69c-1.62,1.49-1.57,2.73-1,4.6a123.67,123.67,0,0,1,6.09,33.42c.81,26.29-8.48,48.06-29.66,64.24-10.48,8-22.28,13.45-34.73,17.6a7.2,7.2,0,0,1-1.07.13,150.9,150.9,0,0,1,.13-15.8,188.66,188.66,0,0,1,5.73-36.2c4.44-16.67,11.15-32.28,21.63-46.11A95.79,95.79,0,0,1,363.51,328.48Z"/></svg>